<?xml version="1.0" standalone="no"?>
<!DOCTYPE svg PUBLIC "-//W3C//DTD SVG 20010904//EN"
 "http://www.w3.org/TR/2001/REC-SVG-20010904/DTD/svg10.dtd">
<svg version="1.0" xmlns="http://www.w3.org/2000/svg"
 width="490.000000pt" height="490.000000pt" viewBox="0 0 490.000000 490.000000"
 preserveAspectRatio="xMidYMid meet">
<metadata>
Created by potrace 1.11, written by Peter Selinger 2001-2013
</metadata>
<g transform="translate(0.000000,490.000000) scale(0.100000,-0.100000)"
fill="#000000" stroke="none">
<path d="M0 4890 c0 -7 180 -10 520 -10 456 0 520 -2 520 -15 0 -19 7 -19 27
0 11 12 26 14 57 10 22 -4 65 -7 93 -8 29 0 53 -2 53 -5 0 -10 -27 -28 -38
-24 -6 2 -12 -1 -12 -7 0 -6 -7 -8 -15 -5 -9 4 -26 -5 -42 -20 -20 -21 -29
-24 -35 -14 -8 10 -11 10 -15 1 -8 -21 -25 -14 -18 7 10 30 -10 24 -46 -15
-19 -19 -39 -35 -46 -35 -17 0 -46 -46 -38 -60 3 -6 11 -8 16 -5 5 3 6 -2 2
-11 -6 -15 -8 -15 -24 4 -15 19 -18 20 -29 7 -7 -8 -10 -15 -6 -15 4 0 -1 -15
-11 -32 -25 -47 -25 -198 0 -225 9 -11 17 -30 17 -43 l0 -24 28 27 c15 15 34
27 41 27 7 0 9 5 6 10 -3 6 1 10 10 10 9 0 26 7 39 15 23 15 61 11 50 -6 -3
-5 0 -9 6 -9 7 0 10 7 6 15 -8 22 4 45 20 38 8 -3 26 5 39 17 14 13 28 21 31
17 4 -3 15 -2 24 3 15 8 19 5 24 -16 7 -25 8 -26 27 -9 23 22 17 33 -8 14 -15
-11 -15 -10 1 9 13 15 22 19 26 11 5 -8 16 -6 38 5 38 20 52 21 26 2 -29 -21
-10 -30 21 -10 22 14 31 15 46 6 16 -10 19 -9 19 7 0 11 4 23 10 26 5 3 7 0 4
-8 -11 -31 14 -25 52 12 71 69 124 82 124 32 0 -11 3 -12 11 -4 15 15 39 5 32
-13 -8 -21 3 -17 34 12 23 21 29 23 31 10 2 -9 12 -16 23 -16 21 0 19 10 -9
43 -8 9 -12 17 -7 17 4 0 16 -11 27 -25 24 -31 42 -33 32 -3 -6 20 -5 21 9 10
9 -8 18 -9 21 -3 3 5 15 7 26 4 23 -6 26 7 9 40 -11 22 -11 22 10 0 12 -13 30
-23 41 -23 29 0 70 21 70 37 0 14 25 18 33 6 2 -5 2 -3 1 4 -2 6 4 14 12 17 7
3 13 2 13 -2 -4 -23 3 -51 17 -68 15 -18 15 -18 10 8 -5 22 -3 26 9 22 8 -4
15 -1 15 4 0 7 11 5 27 -4 34 -17 53 -18 53 -1 0 6 9 1 20 -13 20 -26 27 -12
10 20 -7 13 -7 21 0 25 6 4 8 11 5 16 -4 5 1 9 9 9 9 0 23 -15 32 -32 9 -18
25 -39 36 -46 10 -8 28 -32 39 -55 11 -23 25 -49 32 -58 10 -13 132 -54 162
-54 12 0 16 133 4 141 -19 11 -8 26 16 22 14 -3 28 -2 30 2 2 4 62 11 132 15
139 7 147 8 398 30 351 31 404 35 575 49 96 8 213 17 260 21 161 11 615 46
650 50 69 8 136 8 148 1 7 -4 12 -2 12 5 0 7 10 9 25 7 14 -3 25 -1 25 3 0 5
8 8 18 7 9 -1 29 0 45 0 24 2 27 6 27 37 l0 35 -2450 0 c-1627 0 -2450 -3
-2450 -10z m2023 -31 c-6 -6 -17 -8 -24 -3 -9 5 -8 9 7 14 23 9 31 3 17 -11z
m431 -13 c19 -6 19 -6 3 11 -15 18 5 18 568 18 321 0 586 -3 590 -6 3 -4 -4
-7 -17 -6 -13 0 -48 -2 -78 -6 -30 -3 -118 -11 -195 -17 -77 -5 -290 -24 -472
-42 -265 -25 -333 -35 -333 -46 0 -9 6 -12 16 -8 12 4 15 2 11 -9 -10 -24 10
-27 48 -5 50 28 63 25 29 -8 -16 -15 -35 -26 -42 -24 -8 3 -10 -2 -6 -12 7
-19 4 -19 -30 -6 -14 5 -26 16 -26 24 0 8 -4 18 -10 21 -6 4 -7 -1 -4 -12 5
-14 4 -15 -4 -4 -6 8 -8 25 -6 38 3 18 0 23 -16 23 -11 0 -20 4 -20 9 0 4 -17
30 -37 57 -32 41 -34 47 -13 33 14 -8 34 -19 44 -23z m-1049 4 c4 -6 -7 -13
-25 -16 -17 -4 -41 -20 -55 -38 l-25 -31 0 42 c0 35 3 40 19 36 10 -3 22 0 25
6 9 14 53 14 61 1z"/>
<path d="M2130 4640 c0 -5 5 -10 11 -10 5 0 7 5 4 10 -3 6 -8 10 -11 10 -2 0
-4 -4 -4 -10z"/>
<path d="M1596 4594 c-9 -24 -7 -36 4 -29 6 4 8 11 5 16 -4 5 -1 9 4 9 6 0 11
5 11 10 0 16 -17 12 -24 -6z"/>
<path d="M88 4582 l-88 -3 0 -67 0 -68 133 12 c72 7 222 20 332 29 110 10 207
21 215 26 12 7 11 9 -5 10 -24 1 -105 -2 -160 -6 -22 -2 -113 -6 -202 -10
-137 -7 -163 -6 -163 6 -1 11 -3 11 -13 -1 -14 -18 -37 -24 -37 -10 0 6 7 10
15 10 9 0 18 7 21 15 5 12 10 13 20 4 11 -9 14 -7 14 10 0 17 6 21 34 21 19 0
38 5 41 10 3 6 3 10 -2 11 -48 4 -81 4 -155 1z"/>
<path d="M2307 4547 c-16 -15 -32 -25 -37 -22 -5 3 -11 -8 -15 -24 -3 -16 -12
-32 -20 -35 -7 -2 -15 -15 -18 -28 -3 -20 -5 -19 -12 10 -9 39 -27 37 -36 -4
-4 -16 -7 -21 -8 -11 -2 25 -20 21 -33 -8 -17 -38 -28 -30 -28 23 0 26 -3 57
-6 70 l-6 22 -19 -21 c-10 -11 -23 -18 -28 -14 -7 4 -11 -7 -11 -30 0 -23 -4
-34 -11 -30 -6 4 -8 14 -5 22 3 8 2 11 -3 8 -5 -3 -12 4 -16 15 -7 22 -28 28
-23 8 4 -20 -21 -58 -37 -58 -8 0 -15 -4 -15 -10 0 -5 -7 -10 -15 -10 -12 0
-14 -9 -10 -42 4 -35 4 -39 -5 -20 -5 13 -9 46 -8 73 3 56 -12 80 -37 59 -8
-7 -15 -21 -15 -31 0 -12 -5 -16 -15 -13 -8 4 -15 12 -15 20 0 8 -4 14 -10 14
-5 0 -10 -9 -10 -20 0 -11 -7 -20 -15 -20 -18 0 -19 -5 -4 -32 17 -32 -11 -44
-33 -15 -17 22 -18 21 -14 -23 2 -25 2 -35 -1 -22 -5 24 -18 29 -26 10 -3 -7
-3 10 0 38 4 33 1 54 -6 58 -7 5 -11 -4 -11 -26 -1 -20 -10 -45 -25 -63 l-25
-30 0 30 c-1 17 -7 44 -14 60 l-13 30 -7 -28 c-3 -15 -10 -25 -15 -23 -5 3 -9
0 -8 -7 3 -80 -17 -119 -29 -57 -4 17 -11 30 -15 30 -5 0 -12 -13 -15 -30 -7
-31 -24 -42 -24 -15 0 8 -4 15 -10 15 -5 0 -10 -4 -10 -10 0 -5 -5 -10 -11
-10 -5 0 -9 8 -8 18 3 35 -2 36 -15 2 -7 -21 -9 -42 -4 -52 5 -10 6 -18 2 -18
-4 0 -13 8 -20 18 -11 14 -13 14 -14 2 0 -8 -9 0 -20 18 -25 41 -45 42 -37 3
4 -20 2 -31 -8 -34 -16 -7 -25 13 -25 58 0 39 14 53 28 29 11 -20 32 -10 32
15 0 9 4 21 10 27 5 5 6 15 0 24 -7 11 -11 8 -20 -14 -8 -22 -13 -26 -24 -17
-19 16 -36 -7 -42 -56 -9 -69 -14 -83 -29 -83 -7 0 -16 -9 -20 -19 -3 -11 -13
-25 -21 -32 -14 -11 -15 -8 -9 27 3 21 9 53 11 69 l5 30 -17 -32 c-9 -18 -20
-33 -25 -33 -5 0 -9 -6 -9 -14 0 -8 -7 -16 -15 -20 -10 -4 -15 1 -15 16 0 21
-1 21 -13 3 -9 -11 -16 -14 -21 -7 -3 6 -2 13 4 17 6 4 2 15 -10 27 -11 12
-21 20 -23 17 -2 -2 -10 -13 -16 -24 -12 -19 -12 -18 -7 5 l5 25 -20 -25 c-13
-16 -18 -36 -16 -55 2 -16 1 -41 -3 -55 -4 -16 -1 -34 9 -50 l16 -25 -25 20
c-19 14 -25 26 -22 45 3 21 -1 28 -16 32 -14 4 -21 1 -21 -11 -2 -41 -15 -96
-25 -106 -22 -19 -35 -15 -30 10 3 19 1 23 -11 19 -8 -4 -15 -15 -15 -26 0
-11 -5 -16 -11 -13 -7 5 -5 15 6 31 8 13 13 24 10 24 -21 0 -44 -25 -59 -65
-10 -25 -21 -45 -26 -45 -12 0 -5 -47 11 -67 7 -10 -1 -5 -18 10 -22 21 -32
25 -36 15 -4 -11 -7 -11 -18 0 -12 11 -12 15 1 25 9 7 14 20 12 30 -5 23 -22
22 -22 -2 0 -11 -5 -23 -12 -27 -8 -5 -9 0 -6 14 4 12 2 20 -3 16 -5 -3 -9
-16 -9 -30 0 -13 -4 -24 -9 -24 -5 0 -16 -11 -25 -24 -17 -27 -12 -56 11 -56
9 0 11 -5 6 -12 -4 -7 -9 -22 -10 -32 -2 -11 -6 -22 -10 -25 -3 -3 -4 9 -1 27
5 34 -23 74 -37 53 -3 -6 -3 -11 1 -11 3 0 -1 -12 -10 -26 -20 -30 -18 -69 4
-69 10 0 14 -9 12 -23 -2 -19 2 -22 17 -17 11 3 23 0 27 -6 5 -9 2 -10 -11 -6
-14 6 -16 3 -12 -12 3 -11 0 -22 -7 -24 -6 -3 0 -9 14 -15 14 -6 19 -11 11
-11 -7 -1 -11 -7 -8 -15 3 -7 -2 -24 -10 -36 -13 -18 -13 -24 -2 -31 11 -6 10
-9 -4 -15 -17 -6 -17 -7 0 -24 10 -9 25 -15 33 -12 13 5 13 4 0 -10 -14 -15
-17 -14 -41 8 -28 27 -54 32 -46 10 4 -10 1 -13 -9 -9 -12 4 -13 1 -4 -22 13
-35 13 -35 -9 -35 -24 0 -36 -32 -21 -60 12 -22 49 -27 67 -9 8 8 13 8 18 0 4
-7 -6 -14 -25 -17 -35 -8 -35 -25 1 -35 13 -4 18 -7 12 -8 -7 -1 -13 -6 -13
-12 0 -6 9 -9 20 -6 11 3 20 1 20 -5 0 -6 -11 -8 -27 -4 -55 12 -78 14 -94 5
-11 -6 -21 -4 -29 6 -7 8 -17 12 -23 8 -7 -4 -8 0 -3 12 6 16 4 16 -11 4 -10
-8 -23 -21 -30 -29 -18 -23 -16 4 3 42 12 24 13 32 4 38 -7 4 -9 13 -6 19 5 7
2 10 -6 9 -13 -3 -46 -74 -54 -113 -23 -131 -25 -323 -4 -428 13 -63 63 -181
99 -232 35 -51 44 -74 42 -106 -2 -28 40 -132 58 -143 18 -11 13 -26 -6 -20
-10 3 -5 -5 12 -20 17 -15 24 -26 16 -26 -8 0 -23 8 -34 18 -20 16 -20 16 -14
-3 5 -14 0 -11 -18 10 -16 20 -25 25 -25 14 0 -22 20 -44 60 -68 38 -23 36
-26 -7 -11 -28 10 -28 9 -5 -6 12 -9 22 -24 22 -33 0 -9 5 -22 12 -29 8 -8 8
-15 -3 -28 -13 -16 -12 -17 6 -10 45 17 71 18 84 2 8 -9 19 -16 27 -16 7 0 18
-9 24 -20 6 -11 15 -18 19 -16 14 9 3 -62 -13 -86 -9 -12 -16 -32 -16 -44 0
-28 -10 -36 -25 -21 -18 19 -23 40 -14 64 13 34 -14 50 -41 23 -18 -18 -20
-27 -13 -68 4 -26 8 -70 8 -99 0 -40 3 -49 13 -41 9 8 12 5 12 -10 0 -11 4
-22 9 -24 5 -2 3 -50 -4 -108 -14 -114 -17 -293 -4 -250 5 18 7 9 7 -31 -1
-31 3 -62 7 -69 5 -8 4 -11 -3 -6 -7 4 -9 -5 -5 -31 9 -55 29 -98 38 -83 4 7
3 15 -3 19 -6 3 -13 24 -17 46 -5 30 -4 36 4 25 9 -13 11 -12 11 5 0 11 -4 35
-9 53 -5 17 -6 32 -2 32 5 0 11 -14 15 -31 3 -18 12 -37 19 -43 7 -6 22 -47
32 -91 11 -44 27 -93 37 -110 20 -33 23 -49 8 -40 -12 7 -12 -12 0 -40 l9 -20
1 20 c1 19 2 18 10 -3 5 -12 7 -30 4 -40 -4 -12 -3 -13 3 -4 6 8 15 -8 27 -50
11 -35 23 -67 27 -73 5 -5 2 15 -6 45 -9 30 -27 96 -41 145 -14 50 -30 107
-36 128 -6 20 -15 37 -19 37 -5 0 -6 7 -3 15 3 8 1 36 -5 62 -18 76 -17 230 3
287 17 49 46 100 46 80 0 -13 98 -16 106 -3 3 5 -2 9 -10 9 -17 0 -13 46 10
114 11 35 11 41 -4 52 -9 8 -23 14 -29 14 -15 0 -17 36 -3 45 6 3 10 17 10 31
0 14 7 27 15 30 12 5 14 17 10 53 -2 25 -7 84 -10 131 l-6 85 77 -130 c74
-124 151 -217 204 -245 21 -11 19 -6 -13 31 -132 156 -218 391 -177 489 18 44
80 95 146 119 61 23 138 40 99 22 -29 -13 -55 -48 -62 -82 -5 -27 -4 -29 27
-29 23 0 33 5 37 19 3 10 23 27 46 37 23 10 53 26 67 35 19 13 54 18 139 22
134 5 181 -7 181 -48 0 -17 4 -23 14 -19 11 4 13 0 9 -14 -3 -14 -11 -18 -25
-14 -14 3 -19 1 -14 -6 4 -8 2 -10 -8 -6 -8 3 -21 2 -28 -2 -9 -6 4 -13 37
-20 46 -11 47 -12 15 -13 -42 -1 -241 -50 -255 -62 -5 -5 -20 -9 -33 -9 -21 0
-22 -2 -9 -15 13 -12 20 -12 53 4 41 19 104 36 104 28 0 -3 -22 -13 -49 -22
-27 -9 -55 -23 -62 -31 -9 -11 -26 -13 -68 -9 -44 4 -52 3 -38 -6 10 -6 28 -9
39 -6 14 4 18 2 14 -10 -3 -8 -6 -16 -6 -19 0 -2 -13 -1 -30 3 -43 8 -40 -20
5 -36 19 -7 35 -17 35 -22 0 -5 9 -9 20 -9 31 0 24 -18 -12 -34 -31 -13 -28
-14 49 -9 89 6 128 -1 103 -18 -11 -8 -8 -9 14 -4 84 18 87 18 80 1 -5 -14 -3
-15 21 -6 35 13 38 13 31 -6 -5 -12 2 -11 32 7 20 12 41 26 47 31 5 4 16 8 25
8 9 0 34 15 56 34 21 18 50 36 64 40 45 13 71 30 66 43 -3 7 -1 15 4 18 4 3
10 -1 13 -7 3 -10 8 -10 17 -2 8 8 9 14 1 18 -17 11 -13 29 5 22 14 -5 15 -4
4 9 -9 10 -9 19 -2 28 16 19 -9 207 -27 207 -4 0 -16 7 -27 16 -10 8 0 6 23
-7 49 -26 77 -61 92 -115 18 -66 13 -108 -25 -190 -35 -78 -70 -191 -61 -201
3 -2 21 28 41 68 20 39 36 67 36 61 0 -19 -32 -95 -52 -124 -29 -41 -21 -45
17 -8 19 19 35 40 35 48 0 8 6 12 13 9 9 -3 24 17 44 61 45 97 46 102 22 102
-11 0 -18 4 -15 8 3 5 7 29 10 54 3 25 8 52 10 59 2 8 7 27 10 42 11 49 140
87 196 57 19 -10 110 -130 110 -145 0 -5 -9 0 -20 10 -19 18 -20 17 -20 -4 0
-15 26 -47 75 -94 41 -40 75 -78 75 -85 0 -7 7 -15 15 -18 8 -3 17 -14 20 -25
8 -25 25 -25 18 1 -3 12 0 20 7 20 9 0 9 4 -1 17 -12 16 -10 15 16 -1 17 -11
39 -25 50 -33 24 -16 39 -17 29 -1 -5 8 -2 9 10 5 10 -4 30 -9 44 -12 20 -4
17 0 -13 14 -22 11 -74 57 -115 103 -41 45 -96 103 -122 128 -58 56 -78 102
-77 177 l1 58 17 -88 c16 -80 22 -92 62 -134 53 -54 174 -115 256 -129 16 -2
38 -6 51 -9 12 -3 22 -1 22 4 0 5 11 8 25 6 14 -1 25 1 25 4 0 11 60 33 95 34
36 1 50 17 15 17 -22 0 -27 15 -7 23 6 3 2 6 -11 6 -27 1 -20 21 7 21 10 0 24
7 31 15 7 8 21 15 31 15 24 0 24 9 2 26 -17 12 -16 13 7 14 19 0 21 3 12 12
-18 18 -15 24 16 23 17 0 27 5 27 15 0 8 10 25 23 39 14 15 20 31 16 40 -4 9
-9 26 -11 38 -3 12 -14 25 -24 28 -18 6 -24 22 -20 52 1 8 -5 10 -14 7 -10 -4
-15 0 -16 12 0 16 -2 15 -9 -4 -9 -22 -10 -22 -42 -5 -24 12 -57 17 -123 16
-71 0 -84 2 -60 10 34 10 115 16 115 8 0 -3 14 -7 31 -7 17 -1 35 -7 39 -13
12 -20 22 -18 31 7 10 28 1 55 -17 48 -8 -3 -14 0 -14 7 0 7 -21 22 -46 35
-44 21 -47 21 -60 5 -12 -16 -12 -16 -7 5 5 21 3 22 -23 17 l-29 -7 31 20 c35
22 90 41 64 22 -12 -9 -7 -10 20 -5 19 4 39 11 44 15 10 10 103 -35 108 -52 2
-6 16 -8 36 -3 37 8 37 21 1 83 -24 42 -24 42 5 42 23 0 25 -5 31 -67 9 -99
24 -179 45 -253 10 -36 24 -92 30 -124 23 -115 39 -156 60 -156 22 0 26 10 10
26 -6 6 -13 35 -15 64 -3 29 -17 86 -31 127 -28 80 -26 100 5 62 11 -13 20
-19 21 -13 0 6 -9 19 -20 29 -11 10 -20 22 -20 27 0 16 24 8 51 -18 26 -25 27
-25 22 -5 -3 12 -9 24 -14 27 -19 11 -7 32 35 63 43 30 44 33 34 61 -15 44
-24 45 -59 6 -17 -20 -35 -33 -40 -30 -17 10 -52 89 -54 120 -1 17 -5 36 -9
43 -19 30 86 -2 129 -40 75 -66 100 -230 70 -464 -19 -152 -18 -145 -16 -255
1 -59 4 -80 11 -70 5 8 10 11 10 5 0 -5 6 -1 14 10 8 12 14 47 15 82 0 55 -2
62 -17 57 -14 -5 -14 -3 2 10 25 20 36 20 36 1 0 -8 6 -14 13 -13 7 2 11 -5
10 -17 -1 -11 0 -14 3 -7 5 10 13 8 32 -10 25 -23 25 -22 -2 15 -36 47 -25 48
15 2 17 -19 36 -35 42 -35 6 0 0 12 -14 28 -13 15 -17 21 -9 15 24 -22 34 -14
14 10 -10 12 -12 16 -4 10 19 -17 35 -17 21 0 -6 8 -8 17 -4 20 3 4 0 7 -8 7
-9 0 -28 13 -43 29 l-27 28 40 -2 c23 -1 41 2 41 6 0 16 30 9 50 -11 20 -20
20 -20 20 5 0 14 4 25 8 25 15 0 50 -45 57 -73 4 -15 11 -30 16 -33 13 -8 11
7 -6 56 -19 53 -19 50 5 50 11 0 20 4 20 9 0 15 -18 22 -25 11 -5 -8 -13 -6
-25 5 -16 14 -19 14 -33 0 -20 -19 -27 -19 -43 3 -13 16 -13 16 -14 0 0 -19
-27 -28 -74 -25 -20 1 -31 9 -37 25 -5 14 -5 22 2 22 6 0 7 5 4 10 -4 6 1 22
10 36 18 28 14 54 -10 54 -10 0 -15 10 -15 31 0 18 -7 37 -15 43 -10 8 -13 23
-9 52 l6 41 45 -46 44 -46 -20 42 c-11 22 -32 50 -46 61 -39 31 -29 44 12 16
21 -14 41 -30 44 -36 4 -6 12 -8 18 -4 6 4 -2 18 -22 36 -28 26 -29 29 -12 30
20 0 19 1 -1 18 -31 25 -34 43 -13 77 18 31 20 114 4 164 -7 22 -10 23 -90 25
l-50 1 -6 50 c-4 28 -10 59 -15 69 -6 15 -4 18 7 14 15 -6 16 23 4 165 -4 47
-2 67 5 62 21 -13 9 20 -17 47 -25 26 -31 38 -37 78 -1 8 -14 33 -29 55 -53
78 -24 88 33 12 34 -45 50 -55 34 -20 -4 10 -8 23 -9 29 0 6 -13 26 -29 45
-18 21 -27 26 -22 14 5 -15 0 -12 -19 9 -26 30 -32 41 -16 32 15 -9 -26 69
-43 84 -9 7 -16 26 -16 42 0 39 -78 139 -146 186 -17 12 -46 36 -65 53 l-34
32 30 -7 30 -6 -25 14 c-14 8 -28 12 -32 9 -5 -2 -15 3 -24 11 -9 9 -19 14
-24 11 -4 -3 -10 2 -14 10 -3 8 -11 15 -18 15 -12 0 -110 78 -116 92 -7 15
-41 8 -51 -9 -10 -17 -10 -17 -11 1 0 11 -5 16 -14 13 -8 -3 -13 1 -12 10 0 9
-12 20 -32 27 -18 6 -30 15 -26 19 4 4 0 7 -9 7 -10 0 -17 -8 -17 -20 0 -15
-7 -20 -25 -20 -14 0 -29 -8 -35 -20 -6 -11 -16 -20 -22 -20 -9 0 -9 3 0 12
15 15 16 48 2 48 -5 0 -10 -4 -10 -10 0 -5 -9 -10 -20 -10 -11 0 -20 -6 -20
-13 0 -7 -7 -22 -15 -33 -12 -16 -11 -10 2 32 10 32 13 62 9 80 -7 28 -8 28
-22 10 -8 -11 -14 -30 -14 -43 0 -16 -4 -21 -15 -17 -8 4 -15 1 -15 -5 0 -8
-4 -8 -14 1 -10 9 -10 17 -3 30 8 11 7 23 0 40 -10 19 -12 20 -12 5 -1 -10 -5
-15 -11 -12 -5 3 -10 0 -10 -8 0 -8 -6 -17 -13 -20 -10 -4 -13 2 -9 19 2 13 8
27 13 30 16 10 9 49 -11 64 -11 8 -20 20 -20 26 0 7 -6 14 -14 17 -8 3 -16 16
-18 29 l-3 23 -28 -28z m418 -237 c3 -5 2 -10 -4 -10 -5 0 -13 5 -16 10 -3 6
-2 10 4 10 5 0 13 -4 16 -10z m-1220 -21 c11 -17 0 -20 -21 -4 -17 13 -17 14
-2 15 9 0 20 -5 23 -11z m48 -9 c3 -11 2 -20 -3 -20 -4 0 -10 9 -13 20 -3 11
-2 20 3 20 4 0 10 -9 13 -20z m782 0 c-11 -12 -41 -33 -68 -48 -27 -14 -44
-28 -38 -30 6 -2 11 -10 11 -18 0 -16 16 -19 25 -3 4 6 13 8 20 5 8 -3 16 0
19 7 2 7 5 4 5 -7 1 -15 4 -16 15 -7 12 10 19 8 35 -8 11 -11 22 -17 25 -12 4
6 51 7 104 2 6 0 12 -8 12 -17 0 -11 6 -14 23 -8 37 13 71 11 89 -4 10 -8 15
-19 12 -23 -3 -5 3 -9 13 -10 10 0 13 -3 6 -6 -20 -7 -15 -33 5 -33 10 0 24
-6 31 -12 6 -7 16 -13 22 -13 5 0 9 -4 10 -10 1 -19 22 -35 38 -30 25 7 47
-10 33 -28 -9 -11 -7 -16 13 -27 13 -7 22 -17 19 -22 -3 -4 -1 -8 4 -8 6 0 8
-9 5 -19 -3 -12 -11 -17 -19 -14 -8 3 -14 0 -14 -6 0 -7 17 -19 37 -27 53 -23
124 -101 117 -129 -4 -16 1 -27 16 -38 12 -9 20 -20 16 -25 -3 -5 6 -14 19
-20 14 -7 25 -18 25 -26 0 -7 7 -16 15 -20 8 -3 14 -9 13 -13 -1 -4 2 -22 6
-39 6 -25 14 -33 39 -38 24 -5 29 -9 17 -16 -12 -8 -12 -11 1 -27 9 -10 19
-26 23 -36 3 -11 15 -21 27 -24 13 -4 17 -8 9 -13 -7 -4 -2 -13 14 -24 14 -9
26 -23 26 -31 0 -8 5 -15 10 -15 6 0 10 -7 10 -15 0 -8 4 -15 10 -15 29 0 93
-197 66 -205 -45 -13 -140 -13 -166 0 -16 8 -38 15 -49 15 -14 0 -19 5 -15 14
4 11 -3 15 -28 16 -81 3 -115 -1 -172 -24 -34 -14 -72 -27 -86 -29 -14 -2 -32
-7 -40 -10 -8 -4 -34 -13 -57 -21 -23 -8 -72 -39 -109 -68 -46 -36 -75 -52
-91 -50 -13 2 -23 -1 -23 -7 0 -6 5 -11 11 -11 5 0 7 -4 4 -10 -3 -5 -11 -10
-16 -10 -6 0 -7 5 -4 10 3 6 1 10 -4 10 -6 0 -11 -4 -11 -10 0 -5 -11 -12 -25
-16 -20 -5 -23 -9 -14 -20 9 -11 9 -14 0 -14 -8 0 -10 -8 -6 -20 5 -14 2 -20
-9 -20 -9 0 -16 -5 -16 -11 0 -7 -8 -18 -17 -25 -11 -8 -13 -13 -5 -14 25 0
11 -17 -25 -28 -31 -9 -38 -9 -48 5 -13 18 -39 8 -31 -12 5 -15 -30 -24 -122
-32 -75 -6 -113 2 -106 21 3 8 -8 20 -30 30 -20 9 -39 22 -43 29 -8 12 -64 41
-72 37 -2 -1 -7 4 -12 11 -10 17 -139 13 -235 -6 -72 -15 -87 -17 -178 -15
-35 1 -66 -8 -115 -31 -70 -34 -120 -77 -102 -88 6 -4 -22 -15 -62 -25 -40
-10 -139 -41 -222 -67 -82 -27 -153 -48 -159 -46 -5 2 10 9 34 16 l42 12 -7
47 c-15 94 -22 177 -15 182 3 3 7 14 7 25 2 42 24 107 43 128 11 11 20 26 20
32 0 6 11 27 25 48 25 36 23 49 -5 25 -7 -7 -3 2 9 20 24 35 37 42 27 15 -6
-15 -5 -15 13 1 11 10 18 22 16 26 -8 12 -45 19 -51 9 -3 -5 -10 -9 -16 -9 -6
0 1 15 16 34 26 35 33 52 17 42 -5 -3 -11 1 -14 8 -3 8 -1 17 6 20 9 5 9 7 0
12 -8 4 -9 13 -2 30 12 32 11 37 -1 29 -19 -12 -10 12 15 39 25 27 37 62 14
39 -8 -8 -20 -8 -40 -1 -35 12 -35 14 -6 58 34 50 39 68 19 64 -62 -12 -72
-16 -72 -30 0 -12 -3 -14 -12 -6 -7 6 -31 14 -53 18 -32 6 -36 9 -20 15 11 4
14 8 8 8 -7 1 -13 5 -13 10 0 12 43 22 53 12 11 -11 49 -2 41 10 -3 5 4 9 16
9 14 0 19 4 14 13 -5 8 -2 8 9 -2 15 -12 17 -11 17 2 0 11 6 15 17 12 10 -3 5
1 -11 8 -16 8 -24 17 -18 21 6 3 13 2 17 -4 10 -16 22 -12 28 11 4 16 0 23
-14 26 -16 5 -18 8 -7 14 10 7 8 9 -7 9 -12 0 -16 3 -9 10 6 6 21 6 41 1 24
-7 35 -6 44 6 10 12 10 16 -2 24 -11 7 -10 10 8 15 41 11 14 23 -38 17 l-49
-6 41 42 c42 42 66 50 87 29 9 -9 15 -9 24 0 10 10 10 15 -2 22 -12 8 -10 10
8 10 14 0 20 4 17 10 -4 6 -16 8 -28 4 l-22 -7 20 23 c30 33 67 50 88 39 21
-12 21 -3 2 35 -16 29 -15 29 4 12 13 -12 21 -14 26 -6 4 7 18 9 31 6 17 -5
24 -2 24 9 0 8 6 15 14 15 7 0 16 10 20 22 4 18 8 20 18 10 6 -6 17 -12 22
-12 6 0 5 5 -2 12 -18 18 -14 28 11 28 27 0 41 10 50 33 3 9 14 17 22 17 9 0
14 4 11 9 -11 16 18 19 37 3 14 -12 17 -13 17 -1 0 15 57 18 80 4 10 -6 12 -4
6 10 -5 15 -4 16 9 5 13 -10 15 -9 15 8 0 16 4 20 18 15 9 -4 21 -11 25 -17 6
-8 10 -7 14 2 2 6 9 10 14 6 5 -3 12 2 15 10 3 9 10 14 14 11 5 -3 25 4 46 15
l37 21 -6 -20 c-4 -17 0 -21 22 -21 15 0 33 -9 41 -20 14 -19 15 -18 40 10 29
32 46 38 52 18 3 -9 9 -8 22 4 9 10 23 15 31 12 8 -4 15 -1 15 5 0 6 7 11 15
11 8 0 15 -6 15 -14 0 -9 17 -5 60 16 33 17 60 34 60 40 0 5 4 7 8 4 5 -3 18
3 30 14 14 14 22 16 26 7 3 -9 7 -9 13 -1 4 6 18 14 31 18 12 4 22 12 22 17 0
6 4 8 9 5 5 -3 20 3 32 14 31 25 37 25 14 0z m-284 -113 c-16 -16 -26 0 -10
19 9 11 15 12 17 4 2 -6 -1 -17 -7 -23z m579 -17 c0 -5 -5 -10 -11 -10 -5 0
-7 5 -4 10 3 6 8 10 11 10 2 0 4 -4 4 -10z m110 -140 c0 -5 -2 -10 -4 -10 -3
0 -8 5 -11 10 -3 6 -1 10 4 10 6 0 11 -4 11 -10z m-1960 -66 c0 -8 -4 -12 -10
-9 -5 3 -10 13 -10 21 0 8 5 12 10 9 6 -3 10 -13 10 -21z m-80 2 c0 -3 -4 -8
-10 -11 -5 -3 -10 -1 -10 4 0 6 5 11 10 11 6 0 10 -2 10 -4z m415 -66 c-3 -5
-12 -10 -18 -10 -7 0 -6 4 3 10 19 12 23 12 15 0z m-488 -52 c-3 -8 -6 -5 -6
6 -1 11 2 17 5 13 3 -3 4 -12 1 -19z m138 -178 c3 -6 0 -7 -9 -4 -9 3 -29 1
-46 -4 -16 -6 -32 -7 -35 -2 -3 5 3 10 12 12 41 8 72 8 78 -2z m-44 -281 c-18
-11 -35 -18 -38 -15 -5 5 46 35 62 36 6 0 -5 -9 -24 -21z m189 1 c0 -5 -5 -10
-11 -10 -5 0 -7 5 -4 10 3 6 8 10 11 10 2 0 4 -4 4 -10z m-35 -70 c-10 -11
-20 -18 -23 -15 -3 3 3 14 13 25 10 11 20 18 23 15 3 -3 -3 -14 -13 -25z
m-445 -6 c0 -8 -5 -12 -10 -9 -6 4 -8 11 -5 16 9 14 15 11 15 -7z m490 6 c0
-5 -7 -10 -16 -10 -8 0 -12 5 -9 10 3 6 10 10 16 10 5 0 9 -4 9 -10z m20 -30
c0 -5 -2 -10 -4 -10 -3 0 -8 5 -11 10 -3 6 -1 10 4 10 6 0 11 -4 11 -10z
m-400 -104 c0 -6 -7 -1 -15 10 -8 10 -15 23 -15 28 0 6 7 1 15 -10 8 -10 15
-23 15 -28z m400 -70 c0 -2 -7 -9 -15 -16 -13 -11 -14 -10 -9 4 5 14 24 23 24
12z m2359 -251 c11 -19 16 -37 12 -39 -6 -4 -41 54 -41 69 0 12 10 2 29 -30z
m-894 -85 c-3 -5 -12 -10 -18 -10 -7 0 -6 4 3 10 19 12 23 12 15 0z m690 -51
c11 -17 -1 -21 -15 -4 -8 9 -8 15 -2 15 6 0 14 -5 17 -11z m-1712 -16 c-7 -2
-19 -2 -25 0 -7 3 -2 5 12 5 14 0 19 -2 13 -5z m-63 -13 c-14 -4 -34 -8 -45
-8 -16 0 -15 2 5 8 14 4 34 8 45 8 16 0 15 -2 -5 -8z m1645 -80 c-3 -5 -10
-10 -16 -10 -5 0 -9 5 -9 10 0 6 7 10 16 10 8 0 12 -4 9 -10z m-2235 -115 c-7
-8 -9 -15 -5 -15 3 0 -2 -15 -13 -32 -19 -32 -20 -64 -1 -52 5 3 2 -11 -8 -30
-20 -44 -33 -31 -33 33 0 32 7 53 26 78 14 18 30 33 36 33 7 0 6 -5 -2 -15z
m2760 -56 c0 -5 -4 -9 -10 -9 -5 0 -10 7 -10 16 0 8 5 12 10 9 6 -3 10 -10 10
-16z m-2730 -29 c0 -5 -7 -10 -16 -10 -8 0 -12 5 -9 10 3 6 10 10 16 10 5 0 9
-4 9 -10z m807 4 c-3 -3 -12 -4 -19 -1 -8 3 -5 6 6 6 11 1 17 -2 13 -5z m1400
-30 c-3 -3 -12 -4 -19 -1 -8 3 -5 6 6 6 11 1 17 -2 13 -5z m523 -14 c9 -16 8
-20 -5 -20 -8 0 -15 9 -15 20 0 11 2 20 5 20 2 0 9 -9 15 -20z m-2886 -16 c3
-8 2 -12 -4 -9 -6 3 -10 10 -10 16 0 14 7 11 14 -7z m142 -376 c-12 -50 -36
-86 -36 -56 0 17 40 112 45 106 2 -2 -2 -24 -9 -50z m5 -174 c-5 -16 -10 -21
-10 -12 -1 18 10 51 15 45 2 -1 -1 -16 -5 -33z m-54 4 c-3 -13 -7 -67 -8 -120
-1 -54 -5 -95 -10 -92 -10 6 -6 205 5 222 12 19 19 14 13 -10z m140 -10 c-2
-7 0 -21 5 -30 6 -12 5 -18 -2 -18 -14 0 -24 26 -16 45 7 18 20 20 13 3z
m-142 -237 c3 -5 1 -12 -5 -16 -5 -3 -10 1 -10 9 0 18 6 21 15 7z m21 -75 c10
-54 0 -63 -12 -11 -6 25 -7 45 -3 45 5 0 11 -16 15 -34z"/>
<path d="M1030 3760 c0 -5 5 -10 11 -10 5 0 7 5 4 10 -3 6 -8 10 -11 10 -2 0
-4 -4 -4 -10z"/>
<path d="M995 3730 c-3 -5 -2 -10 4 -10 5 0 13 5 16 10 3 6 2 10 -4 10 -5 0
-13 -4 -16 -10z"/>
<path d="M1008 3613 c7 -3 16 -2 19 1 4 3 -2 6 -13 5 -11 0 -14 -3 -6 -6z"/>
<path d="M967 3522 c-10 -10 -17 -23 -17 -28 0 -5 9 2 20 16 17 22 20 22 20 6
0 -15 3 -16 15 -6 8 7 12 16 9 21 -9 15 -30 10 -47 -9z"/>
<path d="M935 3380 c3 -5 11 -10 16 -10 6 0 7 5 4 10 -3 6 -11 10 -16 10 -6 0
-7 -4 -4 -10z"/>
<path d="M2306 2742 c-3 -5 1 -9 9 -9 8 0 12 4 9 9 -3 4 -7 8 -9 8 -2 0 -6 -4
-9 -8z"/>
<path d="M720 4520 c-21 -7 -19 -8 15 -8 22 0 60 3 85 7 l45 8 -60 1 c-33 0
-71 -4 -85 -8z"/>
<path d="M1402 4504 c-16 -32 -23 -74 -12 -74 5 0 10 9 10 20 0 11 4 20 9 20
14 0 23 32 12 43 -6 6 -13 2 -19 -9z"/>
<path d="M1209 4474 c-12 -14 -11 -16 5 -13 11 2 21 10 24 17 5 17 -13 15 -29
-4z"/>
<path d="M2450 4441 c0 -5 5 -13 10 -16 6 -3 10 -2 10 4 0 5 -4 13 -10 16 -5
3 -10 2 -10 -4z"/>
<path d="M1157 4370 c-10 -16 -13 -30 -8 -30 6 0 17 14 26 30 9 17 12 30 7 30
-4 0 -16 -13 -25 -30z"/>
<path d="M1100 4324 c0 -7 27 -34 34 -34 13 0 5 16 -14 28 -11 7 -20 10 -20 6z"/>
<path d="M880 4160 c0 -5 5 -10 10 -10 6 0 10 5 10 10 0 6 -4 10 -10 10 -5 0
-10 -4 -10 -10z"/>
<path d="M831 4144 c0 -11 3 -14 6 -6 3 7 2 16 -1 19 -3 4 -6 -2 -5 -13z"/>
<path d="M796 4053 c-6 -14 -5 -15 5 -6 7 7 10 15 7 18 -3 3 -9 -2 -12 -12z"/>
<path d="M630 3655 c0 -8 5 -15 10 -15 6 0 10 7 10 15 0 8 -4 15 -10 15 -5 0
-10 -7 -10 -15z"/>
<path d="M540 3543 c0 -5 5 -15 10 -23 8 -12 10 -11 10 8 0 12 -4 22 -10 22
-5 0 -10 -3 -10 -7z"/>
<path d="M500 3471 c0 -6 5 -13 10 -16 6 -3 10 1 10 9 0 9 -4 16 -10 16 -5 0
-10 -4 -10 -9z"/>
<path d="M3365 2950 c10 -11 20 -20 23 -20 3 0 -3 9 -13 20 -10 11 -20 20 -23
20 -3 0 3 -9 13 -20z"/>
<path d="M2960 2890 c0 -5 5 -10 10 -10 6 0 10 5 10 10 0 6 -4 10 -10 10 -5 0
-10 -4 -10 -10z"/>
<path d="M3770 2662 c0 -5 7 -15 15 -22 8 -7 15 -8 15 -2 0 5 -7 15 -15 22 -8
7 -15 8 -15 2z"/>
<path d="M3640 2620 c25 -35 26 -36 26 -11 0 11 -3 18 -7 15 -4 -2 -9 3 -13
11 -3 8 -10 15 -16 15 -6 0 -2 -13 10 -30z"/>
<path d="M3690 2641 c0 -5 7 -12 16 -15 14 -5 15 -4 4 9 -14 17 -20 19 -20 6z"/>
<path d="M3590 2630 c0 -5 5 -10 11 -10 5 0 7 5 4 10 -3 6 -8 10 -11 10 -2 0
-4 -4 -4 -10z"/>
<path d="M3680 2561 c5 -11 14 -22 18 -25 13 -8 11 28 -2 36 -20 14 -27 8 -16
-11z"/>
<path d="M493 2533 c2 -12 6 -26 10 -29 11 -11 8 19 -3 36 -8 12 -9 10 -7 -7z"/>
<path d="M2281 2523 c-24 -7 -47 -16 -50 -19 -5 -6 52 1 99 11 8 2 21 4 28 4
7 1 10 6 7 11 -5 8 -11 8 -20 0 -7 -6 -15 -7 -17 -2 -1 4 -23 2 -47 -5z"/>
<path d="M3410 2499 c0 -5 5 -7 10 -4 6 3 10 8 10 11 0 2 -4 4 -10 4 -5 0 -10
-5 -10 -11z"/>
<path d="M1021 2471 c-17 -23 -21 -44 -21 -103 0 -45 5 -81 14 -93 7 -11 13
-28 13 -38 0 -23 54 -137 65 -137 5 0 6 10 4 23 -3 12 -10 87 -16 167 -17 224
-20 236 -59 181z"/>
<path d="M4353 2493 c9 -2 23 -2 30 0 6 3 -1 5 -18 5 -16 0 -22 -2 -12 -5z"/>
<path d="M513 2479 c3 -9 1 -21 -5 -27 -11 -11 5 -42 22 -42 9 0 -5 68 -16 78
-4 4 -5 0 -1 -9z"/>
<path d="M3820 2456 c0 -29 14 -41 27 -23 7 8 4 18 -9 30 -17 16 -18 16 -18
-7z"/>
<path d="M4143 2473 c9 -2 23 -2 30 0 6 3 -1 5 -18 5 -16 0 -22 -2 -12 -5z"/>
<path d="M3980 2460 c0 -5 5 -10 10 -10 6 0 10 5 10 10 0 6 -4 10 -10 10 -5 0
-10 -4 -10 -10z"/>
<path d="M4010 2460 c0 -5 5 -10 10 -10 6 0 10 5 10 10 0 6 -4 10 -10 10 -5 0
-10 -4 -10 -10z"/>
<path d="M4058 2463 c12 -2 32 -2 45 0 12 2 2 4 -23 4 -25 0 -35 -2 -22 -4z"/>
<path d="M2385 2449 c-11 -17 1 -21 15 -4 8 9 8 15 2 15 -6 0 -14 -5 -17 -11z"/>
<path d="M3880 2452 c0 -15 13 -22 24 -13 6 5 25 11 41 14 22 3 17 4 -17 6
-27 0 -48 -3 -48 -7z"/>
<path d="M2150 2361 c0 -12 6 -21 16 -21 9 0 14 7 12 17 -5 25 -28 28 -28 4z"/>
<path d="M3650 2336 c0 -2 8 -10 18 -17 15 -13 16 -12 3 4 -13 16 -21 21 -21
13z"/>
<path d="M3656 2285 c4 -8 11 -15 16 -15 6 0 5 6 -2 15 -7 8 -14 15 -16 15 -2
0 -1 -7 2 -15z"/>
<path d="M3801 2284 c0 -11 3 -14 6 -6 3 7 2 16 -1 19 -3 4 -6 -2 -5 -13z"/>
<path d="M523 2165 c-9 -25 4 -29 17 -6 7 15 7 21 0 21 -6 0 -13 -7 -17 -15z"/>
<path d="M3830 2140 c0 -5 5 -10 11 -10 5 0 7 5 4 10 -3 6 -8 10 -11 10 -2 0
-4 -4 -4 -10z"/>
<path d="M0 2071 c0 -55 2 -62 15 -51 8 7 15 18 15 25 0 26 40 45 130 61 52 9
97 17 99 19 2 2 -56 5 -128 7 l-131 3 0 -64z"/>
<path d="M3136 2132 c-3 -6 -1 -14 5 -17 15 -10 25 3 12 16 -7 7 -13 7 -17 1z"/>
<path d="M2709 2092 c-13 -2 -15 -11 -7 -60 10 -66 24 -100 53 -124 11 -9 20
-20 21 -25 2 -17 17 -43 24 -43 5 0 26 -10 47 -22 42 -25 70 -31 146 -28 23 1
11 20 -13 20 -10 0 -22 5 -25 10 -3 6 1 10 10 10 9 0 13 5 10 10 -4 6 -11 7
-17 4 -7 -5 -9 -1 -5 8 3 10 -3 24 -15 35 -11 10 -26 30 -34 45 -8 16 -21 28
-29 28 -8 0 -15 6 -15 14 0 22 -29 46 -47 39 -12 -5 -15 -2 -10 10 3 9 3 17
-1 17 -5 0 -18 9 -30 21 -12 11 -26 17 -31 14 -5 -3 -11 1 -13 8 -2 7 -10 11
-19 9z"/>
<path d="M3481 2064 c0 -11 3 -14 6 -6 3 7 2 16 -1 19 -3 4 -6 -2 -5 -13z"/>
<path d="M3851 2004 c0 -11 3 -14 6 -6 3 7 2 16 -1 19 -3 4 -6 -2 -5 -13z"/>
<path d="M1933 1977 c-4 -8 -20 -22 -35 -32 -15 -9 -25 -21 -22 -26 3 -5 -1
-9 -8 -9 -8 0 -20 -9 -28 -20 -8 -11 -21 -20 -30 -20 -11 0 -12 -2 -2 -8 9 -6
6 -14 -13 -32 -14 -13 -23 -30 -20 -37 2 -8 -2 -16 -10 -19 -7 -3 -12 -11 -9
-19 3 -7 -1 -19 -9 -27 -8 -8 -18 -25 -22 -38 -4 -14 -20 -42 -37 -63 -16 -20
-26 -42 -23 -47 3 -6 1 -10 -5 -10 -6 0 -8 -4 -5 -10 3 -5 1 -10 -4 -10 -6 0
-11 -11 -11 -25 0 -14 -4 -25 -10 -25 -13 0 -13 -63 0 -76 6 -6 12 -39 14 -75
2 -40 14 -88 30 -126 14 -34 26 -71 26 -82 0 -11 5 -23 10 -26 6 -3 10 -15 10
-26 0 -29 28 -79 45 -79 9 0 12 6 9 15 -4 8 -1 15 4 15 10 0 9 38 -2 118 -3
24 1 38 17 52 30 28 55 25 117 -14 43 -27 57 -32 63 -21 16 29 74 38 159 25
101 -16 318 -7 406 16 51 13 69 14 90 5 17 -8 28 -9 36 -1 15 15 30 12 17 -4
-9 -11 -9 -15 1 -19 7 -3 -2 -6 -19 -6 -18 -1 -33 -6 -33 -12 0 -5 5 -7 10 -4
14 9 13 -8 -2 -23 -7 -7 -17 -8 -30 -1 -13 7 -18 6 -18 -4 0 -13 -31 -27 -110
-47 -49 -13 -60 -23 -60 -56 0 -20 3 -21 41 -13 22 5 44 7 50 4 5 -4 9 0 9 7
0 12 32 27 120 55 12 4 12 7 -4 19 -19 14 -19 14 1 14 13 0 24 8 28 20 3 11
11 20 16 20 6 0 7 -4 4 -10 -10 -16 11 -12 25 5 7 8 16 12 21 9 5 -3 9 0 9 6
0 7 7 10 15 6 9 -3 19 3 25 14 6 11 36 39 68 62 31 23 63 50 70 60 17 23 29
23 35 1 4 -16 5 -16 6 1 1 15 6 17 31 13 22 -5 30 -3 30 8 0 27 35 16 47 -15
8 -22 8 -30 0 -30 -8 0 -7 -4 1 -12 6 -6 15 -9 18 -5 11 11 14 217 4 217 -6 0
-10 -10 -10 -22 0 -43 -16 -49 -73 -33 -20 5 -33 3 -45 -8 -18 -16 -109 -40
-134 -36 -12 3 -111 -7 -188 -17 -19 -3 -57 -12 -85 -20 -129 -39 -214 -55
-285 -54 -106 3 -117 2 -132 -13 -7 -8 -34 -21 -58 -29 -44 -15 -44 -16 -20
-26 24 -10 24 -11 3 -11 -12 -1 -29 6 -37 15 -18 17 -21 28 -6 19 6 -3 10 -2
10 4 0 15 -45 25 -112 24 -32 0 -58 4 -58 8 0 5 -9 9 -19 9 -10 0 -22 7 -25
16 -3 9 -13 14 -20 11 -9 -4 -17 1 -19 11 -3 11 -5 7 -6 -9 -1 -35 -41 -33
-59 4 -10 22 -10 32 2 62 8 19 13 35 11 35 -8 0 78 166 98 188 55 61 109 111
125 115 9 2 5 3 -9 1 -25 -3 -27 0 -27 34 0 29 2 33 8 16 12 -32 40 -39 40
-10 0 29 20 89 28 82 3 -3 11 -1 18 5 13 11 8 39 -7 39 -4 0 -6 -6 -3 -14 4
-11 0 -13 -18 -9 -13 3 -20 2 -16 -2 4 -4 -1 -15 -11 -24 -10 -9 -20 -23 -24
-31 -3 -10 -6 -6 -6 9 -1 15 11 35 30 52 28 25 31 32 25 63 -7 37 -28 48 -43
23z m261 -702 c3 -8 1 -15 -5 -15 -6 0 -8 -4 -5 -9 4 -5 -4 -6 -16 -3 -18 5
-19 7 -6 10 10 2 15 9 11 18 -3 8 -1 14 5 14 5 0 12 -7 16 -15z m101 -35 c7
-12 -22 -12 -50 0 -17 7 -15 9 12 9 17 1 35 -3 38 -9z m435 -16 c0 -2 -7 -4
-15 -4 -8 0 -15 4 -15 10 0 5 7 7 15 4 8 -4 15 -8 15 -10z"/>
<path d="M2622 1795 c-18 -8 -38 -12 -46 -9 -7 3 -16 -2 -19 -10 -4 -11 -1
-13 11 -9 9 3 4 -5 -13 -18 -16 -13 -36 -23 -45 -22 -8 1 -10 0 -3 -3 9 -4 8
-14 -4 -39 -9 -19 -20 -32 -25 -29 -4 3 -5 -2 -2 -10 7 -18 20 -21 29 -6 3 5
23 17 43 27 20 9 40 22 44 27 4 6 10 7 14 4 3 -4 -3 -26 -15 -50 -15 -31 -18
-45 -9 -53 8 -7 9 -6 4 3 -4 7 -2 12 6 12 7 0 19 14 26 30 8 17 21 30 30 30
13 0 14 2 4 9 -10 6 -6 15 15 38 16 17 29 44 31 62 2 26 -1 31 -20 31 -13 -1
-38 -7 -56 -15z"/>
<path d="M930 1780 c-12 -7 -12 -12 -3 -21 15 -15 26 -7 21 15 -2 11 -7 13
-18 6z"/>
<path d="M2044 1709 c-10 -16 33 -46 83 -58 89 -23 98 -6 21 39 -55 31 -92 38
-104 19z"/>
<path d="M898 1691 c7 -4 12 -14 10 -22 -2 -8 7 -15 20 -17 12 -2 22 2 22 8 0
18 -26 40 -47 40 -13 0 -15 -2 -5 -9z"/>
<path d="M905 1630 c3 -5 8 -10 11 -10 2 0 4 5 4 10 0 6 -5 10 -11 10 -5 0 -7
-4 -4 -10z"/>
<path d="M970 1630 c0 -5 5 -10 11 -10 5 0 7 5 4 10 -3 6 -8 10 -11 10 -2 0
-4 -4 -4 -10z"/>
<path d="M2450 1625 c0 -18 -16 -20 -23 -2 -4 10 -6 10 -6 0 -1 -16 -31 -17
-31 -2 0 8 -5 8 -15 -1 -10 -9 -15 -9 -15 -1 0 24 -19 9 -25 -20 -8 -34 -5
-39 21 -43 10 -2 20 -8 22 -14 4 -12 -15 -17 -57 -13 -22 2 -61 -23 -61 -41 0
-4 7 -8 15 -8 8 0 15 -4 15 -9 0 -5 14 -7 30 -5 18 3 30 1 30 -6 0 -6 10 -1
22 10 15 13 34 20 53 19 38 -2 85 10 85 23 0 5 7 17 16 26 11 10 13 17 5 20
-14 5 -15 32 -1 32 15 0 12 26 -3 39 -11 8 -16 5 -25 -14 -6 -13 -22 -31 -36
-40 -23 -15 -27 -15 -47 -1 l-22 15 29 7 c28 7 44 20 44 37 0 4 -4 7 -10 7 -5
0 -10 -7 -10 -15z"/>
<path d="M3071 1584 c0 -11 3 -14 6 -6 3 7 2 16 -1 19 -3 4 -6 -2 -5 -13z"/>
<path d="M1590 1429 c0 -5 5 -7 10 -4 6 3 10 8 10 11 0 2 -4 4 -10 4 -5 0 -10
-5 -10 -11z"/>
<path d="M2401 1401 c-10 -7 -10 -10 -1 -16 6 -4 16 -3 22 3 13 13 -4 23 -21
13z"/>
<path d="M1090 1359 c-11 -19 -10 -20 9 -9 22 11 29 30 11 30 -5 0 -14 -9 -20
-21z"/>
<path d="M700 1226 c0 -14 5 -28 10 -31 6 -4 10 7 10 24 0 17 -4 31 -10 31 -5
0 -10 -11 -10 -24z"/>
<path d="M3409 1197 c19 -20 36 -35 39 -33 4 5 -23 33 -53 56 -11 8 -5 -2 14
-23z"/>
<path d="M2000 1171 c0 -5 5 -13 10 -16 6 -3 10 -2 10 4 0 5 -4 13 -10 16 -5
3 -10 2 -10 -4z"/>
<path d="M709 1154 c-6 -20 10 -54 26 -54 4 0 3 6 -3 13 -5 6 -12 23 -14 37
-3 23 -4 23 -9 4z"/>
<path d="M2740 1109 c0 -5 5 -7 10 -4 6 3 10 8 10 11 0 2 -4 4 -10 4 -5 0 -10
-5 -10 -11z"/>
<path d="M2370 1066 c0 -9 5 -16 10 -16 6 0 10 4 10 9 0 6 -4 13 -10 16 -5 3
-10 -1 -10 -9z"/>
<path d="M0 1059 c0 -5 5 -7 10 -4 5 3 10 8 10 11 0 2 -4 4 -10 4 -5 0 -10 -5
-10 -11z"/>
<path d="M2295 1060 c-3 -5 -1 -10 4 -10 6 0 11 5 11 10 0 6 -2 10 -4 10 -3 0
-8 -4 -11 -10z"/>
<path d="M2340 1050 c0 -19 3 -21 12 -12 9 9 9 15 0 24 -9 9 -12 7 -12 -12z"/>
<path d="M3540 1001 c0 -5 5 -13 10 -16 6 -3 10 -2 10 4 0 5 -4 13 -10 16 -5
3 -10 2 -10 -4z"/>
<path d="M3290 946 c0 -8 5 -18 10 -21 6 -3 10 1 10 9 0 8 -4 18 -10 21 -5 3
-10 -1 -10 -9z"/>
<path d="M3246 889 c-15 -30 -33 -65 -40 -79 -14 -25 -13 -45 19 -250 2 -14 4
-29 4 -35 1 -5 5 -3 10 5 7 9 9 -2 6 -33 -2 -33 1 -47 10 -47 7 0 18 -14 24
-31 9 -26 8 -30 -4 -25 -8 3 -15 0 -16 -7 0 -7 -2 -25 -3 -42 -2 -16 1 -39 5
-50 6 -15 8 -8 8 23 1 60 18 52 26 -13 7 -55 25 -77 25 -30 0 14 3 25 8 25 14
0 36 -19 30 -25 -3 -3 3 -29 13 -58 10 -28 19 -63 19 -77 0 -14 5 -31 12 -38
8 -8 9 -12 1 -12 -7 0 -9 -11 -7 -28 3 -15 6 -35 7 -45 1 -16 39 -17 652 -17
569 1 648 3 631 15 -26 20 -13 31 13 13 12 -8 18 -18 14 -21 -3 -4 7 -7 24 -7
23 0 39 9 62 36 17 19 29 39 26 45 -4 5 -1 9 5 9 17 0 7 54 -13 74 -13 14 -21
15 -31 7 -8 -7 -24 -14 -36 -16 -29 -6 -32 -9 -24 -28 3 -9 12 -13 20 -10 8 3
14 0 14 -6 0 -6 -13 -11 -30 -11 -22 0 -28 -4 -24 -15 4 -8 12 -15 20 -15 8 0
14 -10 13 -22 0 -13 -3 -17 -6 -10 -2 6 -13 12 -22 12 -10 0 -25 8 -34 18 -15
16 -15 19 3 30 25 15 26 32 3 33 -14 0 -13 2 5 9 24 10 30 35 10 43 -10 4 -10
6 0 6 20 2 14 19 -10 27 -13 5 -27 7 -32 6 -4 -2 -14 5 -22 15 -14 19 -14 19
-18 -52 -1 -20 -49 -45 -62 -32 -4 4 -8 21 -9 38 -2 27 1 30 22 26 27 -5 32 9
6 17 -10 2 -28 7 -40 11 -17 5 -23 2 -23 -9 0 -13 -5 -14 -26 -5 -31 11 -37 8
-39 -24 -1 -13 -9 -23 -21 -26 -16 -3 -17 -1 -5 13 12 15 12 19 0 31 -16 16
-33 19 -97 17 -24 -1 -41 -6 -37 -11 3 -5 0 -13 -6 -17 -7 -4 -9 -3 -6 3 4 6
-5 13 -21 16 -15 3 -29 1 -30 -4 -2 -5 -8 -6 -14 -3 -6 4 -14 1 -18 -7 -7 -10
-11 -10 -24 1 -14 11 -19 10 -34 -4 -36 -31 -57 -20 -52 28 2 18 1 18 -16 2
-14 -15 -15 -19 -3 -27 12 -8 11 -11 -3 -20 -10 -5 -18 -17 -18 -26 0 -9 -3
-13 -7 -9 -12 12 -13 79 -1 93 7 9 7 13 -1 13 -6 0 -8 11 -4 30 6 34 -2 37
-34 15 -21 -15 -22 -14 -32 22 -49 193 -50 203 -22 203 11 0 22 4 25 8 3 5 19
7 36 4 17 -2 30 0 30 6 0 12 -8 13 -97 12 -50 -1 -64 2 -75 19 -8 10 -41 31
-73 46 -132 57 -215 100 -215 110 0 6 5 16 12 23 9 9 5 10 -18 3 -36 -10 -67
0 -111 39 -19 17 -38 28 -44 25 -5 -4 -12 0 -15 8 -3 9 -17 18 -32 22 -15 3
-41 23 -58 42 l-31 36 -27 -54z m1025 -775 c-7 -24 -10 -26 -16 -11 -4 10 -2
24 5 32 18 21 21 14 11 -21z m179 20 c0 -2 -7 -4 -15 -4 -8 0 -15 4 -15 10 0
5 7 7 15 4 8 -4 15 -8 15 -10z m-50 -4 c0 -5 -2 -10 -4 -10 -3 0 -8 5 -11 10
-3 6 -1 10 4 10 6 0 11 -4 11 -10z m175 -20 c18 15 27 10 16 -9 -12 -19 -58
-6 -58 15 0 15 2 15 13 -1 11 -15 16 -16 29 -5z m-190 -30 c3 -5 1 -10 -4 -10
-6 0 -11 5 -11 10 0 6 2 10 4 10 3 0 8 -4 11 -10z m200 -19 c9 -15 -14 -23
-43 -16 -25 7 -25 8 -7 15 27 12 43 12 50 1z"/>
<path d="M3570 894 c0 -8 5 -12 10 -9 6 4 8 11 5 16 -9 14 -15 11 -15 -7z"/>
<path d="M3571 854 c0 -11 3 -14 6 -6 3 7 2 16 -1 19 -3 4 -6 -2 -5 -13z"/>
<path d="M1436 785 c4 -22 11 -44 16 -50 10 -11 2 34 -13 70 -6 13 -6 5 -3
-20z"/>
<path d="M1463 769 c11 -41 -4 -76 -45 -105 -23 -16 -59 -46 -81 -66 -23 -21
-49 -38 -58 -38 -10 0 -30 -13 -45 -30 -26 -27 -30 -28 -51 -15 -29 19 -43 19
-17 1 24 -19 12 -42 -37 -69 -19 -10 -50 -35 -70 -55 -20 -20 -50 -48 -68 -62
-25 -20 -30 -30 -26 -52 5 -19 -1 -39 -20 -67 -22 -35 -28 -40 -45 -31 -10 5
-31 10 -47 10 -27 0 -28 -2 -28 -54 -1 -47 3 -56 25 -71 14 -9 17 -14 8 -11
-24 7 -44 -20 -28 -39 11 -13 62 -15 348 -15 l335 0 -7 49 c-4 29 -2 52 3 56
6 3 7 15 1 29 -5 13 -4 29 1 37 5 8 9 31 9 52 0 23 4 36 10 32 6 -3 10 -17 10
-31 0 -13 5 -24 11 -24 7 0 9 16 4 49 -4 29 -3 51 4 55 12 8 4 150 -14 260
-19 111 -57 226 -73 226 -10 0 -12 -7 -9 -21z m84 -451 c-3 -8 -6 -5 -6 6 -1
11 2 17 5 13 3 -3 4 -12 1 -19z m-642 -174 c-11 -8 -26 -12 -33 -9 -8 3 -18 5
-23 5 -6 0 -7 5 -4 10 3 6 23 10 43 10 35 -1 36 -1 17 -16z m-15 -44 c0 -5 -7
-7 -15 -4 -8 4 -12 10 -9 15 6 11 24 2 24 -11z"/>
<path d="M1047 649 c12 -24 93 -113 93 -103 -1 5 -24 34 -51 64 -28 30 -47 48
-42 39z"/>
<path d="M3053 635 c-15 -16 -16 -25 -5 -25 4 0 13 9 20 20 14 23 3 26 -15 5z"/>
<path d="M2994 568 c-27 -32 -84 -63 -84 -46 0 8 -3 9 -8 3 -8 -13 -93 -41
-106 -37 -5 2 -23 -3 -40 -11 -17 -8 -43 -21 -58 -27 -15 -7 -41 -13 -58 -12
-19 0 -33 -5 -37 -14 -4 -11 -8 -12 -13 -5 -4 8 -16 6 -38 -5 -31 -15 -88 -27
-124 -26 -10 1 -18 -4 -18 -10 0 -5 -7 -8 -15 -5 -8 4 -17 1 -21 -4 -4 -7 -27
-9 -59 -5 -33 3 -55 2 -57 -5 -2 -6 -19 -4 -47 6 -51 18 -151 20 -151 4 0 -6
9 -9 20 -6 10 3 21 0 24 -7 3 -7 8 -6 15 4 8 12 11 12 11 1 0 -7 6 -11 14 -8
7 3 18 1 23 -4 5 -5 22 -10 38 -11 17 -1 33 -6 36 -11 3 -5 27 -10 53 -12 60
-4 106 -38 56 -42 -11 -1 -22 6 -25 18 -4 10 -11 19 -17 19 -7 0 -6 -5 2 -15
7 -8 9 -23 5 -36 -7 -21 -5 -22 30 -16 21 3 46 14 57 24 17 16 18 16 12 0 -4
-12 -1 -17 13 -17 10 0 25 -6 32 -12 11 -11 13 -10 7 0 -5 9 1 11 28 7 24 -4
44 -1 63 11 16 10 23 12 16 4 -15 -16 -17 -30 -5 -30 5 0 15 11 22 25 14 27
27 24 40 -9 5 -13 3 -26 -4 -35 -8 -10 -2 -9 22 3 20 10 30 21 25 28 -5 9 -8
9 -11 0 -2 -7 -8 -12 -13 -12 -4 0 -6 7 -3 15 4 8 15 15 27 15 11 0 17 -3 14
-7 -4 -3 -2 -12 3 -18 8 -10 3 -16 -20 -24 -18 -6 -29 -15 -25 -21 5 -8 11 -7
22 1 12 10 17 10 25 -2 8 -11 9 -11 4 3 -3 10 2 22 12 28 15 8 15 11 2 21 -12
9 -11 10 8 6 12 -3 20 -1 16 4 -3 5 -11 9 -18 9 -8 0 -20 7 -27 16 -12 15 -11
16 9 10 13 -5 22 -3 22 3 0 6 4 11 10 11 5 0 7 -7 4 -15 -4 -10 0 -15 15 -15
12 0 21 -4 21 -10 0 -5 -5 -10 -12 -10 -6 0 -8 -3 -5 -6 9 -10 38 16 31 28 -3
5 0 16 7 24 10 12 9 13 -7 7 -10 -3 -22 -11 -26 -17 -4 -6 -7 5 -7 24 0 19 3
29 6 23 2 -7 9 -13 14 -13 6 0 7 4 4 10 -3 5 7 15 22 22 31 14 44 28 37 40 -3
4 0 8 5 8 6 0 11 7 11 16 0 14 2 15 17 3 15 -13 15 -12 5 7 -14 27 -3 39 15
16 12 -15 12 -15 7 0 -4 11 3 21 23 32 15 8 24 15 20 16 -5 0 13 19 40 41 26
23 50 46 51 50 7 17 -15 9 -34 -13z m-342 -290 c-9 -9 -15 -9 -24 1 -11 10
-10 11 5 6 10 -5 17 -2 17 6 0 7 3 9 7 6 4 -4 1 -13 -5 -19z"/>
<path d="M4150 539 c0 -5 5 -7 10 -4 6 3 10 8 10 11 0 2 -4 4 -10 4 -5 0 -10
-5 -10 -11z"/>
<path d="M4206 526 c4 -10 1 -16 -9 -16 -30 0 -25 -16 7 -26 32 -10 33 -10 27
20 -4 16 -12 31 -19 34 -7 2 -10 -2 -6 -12z"/>
<path d="M4336 531 c-4 -5 6 -16 22 -23 22 -11 30 -12 39 -2 14 14 6 25 -13
17 -8 -3 -21 0 -28 6 -9 8 -16 8 -20 2z"/>
<path d="M3950 520 c-24 -15 3 -33 38 -25 38 8 65 35 35 35 -10 0 -25 -6 -31
-12 -10 -10 -15 -10 -20 -1 -5 8 -13 9 -22 3z"/>
<path d="M4024 486 c-18 -14 -18 -15 -1 -21 23 -9 47 1 47 20 0 19 -20 19 -46
1z"/>
<path d="M4350 470 c0 -5 9 -10 21 -10 11 0 17 5 14 10 -3 6 -13 10 -21 10 -8
0 -14 -4 -14 -10z"/>
<path d="M4173 463 c-36 -7 -27 -21 13 -21 21 0 34 4 31 11 -4 13 -15 15 -44
10z"/>
<path d="M4500 460 c0 -5 5 -10 11 -10 5 0 7 5 4 10 -3 6 -8 10 -11 10 -2 0
-4 -4 -4 -10z"/>
<path d="M4390 430 c0 -5 7 -10 16 -10 8 0 12 5 9 10 -3 6 -10 10 -16 10 -5 0
-9 -4 -9 -10z"/>
<path d="M4200 410 c0 -5 7 -10 15 -10 8 0 15 5 15 10 0 6 -7 10 -15 10 -8 0
-15 -4 -15 -10z"/>
<path d="M4014 376 c-10 -8 -16 -18 -12 -22 4 -4 14 -1 22 5 18 15 37 6 29
-14 -3 -10 1 -15 14 -15 32 0 34 12 7 37 -29 27 -34 28 -60 9z"/>
<path d="M4355 380 c-3 -5 1 -10 10 -10 9 0 13 5 10 10 -3 6 -8 10 -10 10 -2
0 -7 -4 -10 -10z"/>
<path d="M4215 373 c-36 -9 -41 -23 -7 -23 22 0 32 5 32 15 0 8 -1 14 -2 14
-2 -1 -12 -3 -23 -6z"/>
<path d="M4525 330 c-3 -5 1 -10 10 -10 9 0 13 5 10 10 -3 6 -8 10 -10 10 -2
0 -7 -4 -10 -10z"/>
<path d="M4200 310 c0 -5 5 -10 10 -10 6 0 10 5 10 10 0 6 -4 10 -10 10 -5 0
-10 -4 -10 -10z"/>
<path d="M4515 280 c-3 -5 -1 -10 4 -10 6 0 11 5 11 10 0 6 -2 10 -4 10 -3 0
-8 -4 -11 -10z"/>
<path d="M4200 265 c0 -8 5 -15 10 -15 6 0 10 7 10 15 0 8 -4 15 -10 15 -5 0
-10 -7 -10 -15z"/>
<path d="M4160 260 c0 -5 7 -10 16 -10 8 0 12 5 9 10 -3 6 -10 10 -16 10 -5 0
-9 -4 -9 -10z"/>
<path d="M2607 245 c-4 -8 -3 -16 1 -19 4 -3 9 4 9 15 2 23 -3 25 -10 4z"/>
<path d="M2400 240 c0 -6 7 -10 15 -10 8 0 15 2 15 4 0 2 -7 6 -15 10 -8 3
-15 1 -15 -4z"/>
<path d="M4561 191 c-9 -6 -10 -11 -2 -15 6 -4 11 -2 11 4 0 6 5 8 12 4 7 -4
8 -3 4 4 -8 14 -7 14 -25 3z"/>
<path d="M3320 155 c12 -15 30 -12 30 6 0 5 -10 9 -21 9 -18 0 -19 -2 -9 -15z"/>
<path d="M3210 114 c-6 -14 -10 -34 -10 -44 0 -10 -5 -31 -10 -45 -9 -24 -8
-26 11 -23 16 2 26 17 39 61 10 31 14 57 9 57 -4 0 -14 -19 -20 -42 -7 -25
-14 -36 -16 -26 -2 9 0 33 6 52 11 42 5 48 -9 10z"/>
<path d="M675 122 c-16 -16 -3 -33 23 -30 33 4 37 31 4 33 -12 1 -24 -1 -27
-3z"/>
<path d="M520 95 c-7 -8 -8 -15 -2 -15 5 0 15 7 22 15 7 8 8 15 2 15 -5 0 -15
-7 -22 -15z"/>
<path d="M635 80 c-3 -5 -1 -10 4 -10 6 0 11 5 11 10 0 6 -2 10 -4 10 -3 0 -8
-4 -11 -10z"/>
<path d="M2550 70 c-18 -12 -2 -12 25 0 13 6 15 9 5 9 -8 0 -22 -4 -30 -9z"/>
<path d="M3261 58 c-1 -16 4 -28 9 -28 12 0 12 8 0 35 -8 18 -9 17 -9 -7z"/>
<path d="M539 57 c-9 -7 -19 -22 -23 -35 -7 -20 -4 -22 29 -22 22 0 34 4 30
10 -4 6 -15 8 -26 5 -28 -9 -23 13 6 27 13 6 22 15 19 19 -7 12 -16 11 -35 -4z"/>
<path d="M4864 45 c-10 -14 -26 -25 -34 -25 -8 0 -22 -5 -30 -10 -11 -7 -1
-10 36 -10 33 0 51 4 52 13 0 6 4 22 7 35 10 30 -8 28 -31 -3z"/>
<path d="M700 44 c0 -9 5 -14 12 -12 18 6 21 28 4 28 -9 0 -16 -7 -16 -16z"/>
<path d="M83 33 c-13 -2 -23 -11 -23 -19 0 -22 105 -19 131 4 19 18 19 19 -11
19 -18 0 -30 -6 -30 -14 0 -18 -16 -17 -24 2 -3 8 -9 14 -13 14 -4 -1 -18 -4
-30 -6z"/>
</g>
</svg>
